# xmcd CD database file
#
# Track frame offsets:
#	150
#	17970
#	31151
#	46127
#	68618
#	85338
#	99852
#	117716
#	131314
#	148608
#	161383
#	186695
#	198355
#	211716
#	227283
#
# Disc length: 3258 seconds
#
# Revision: 0
# Processed by: cddbd v1.5.2PL0 Copyright (c) Steve Scherf et al.
# Submitted via: CDex 1.51
#
DISCID=c10cb80f
DTITLE=Matthieu Boré - Live Au Duc Des Lombards
DYEAR=2011
DGENRE=Jazz
TTITLE0=Hong Kong Blues (Live)
TTITLE1=Ya Ya (Live)
TTITLE2=I'm Ready (Live)
TTITLE3=Lazy Bones (Live)
TTITLE4=Satisfy My Soul (Live)
TTITLE5=I'm Beginning To See The Light (Live)
TTITLE6=Georgia On My Mind (Live)
TTITLE7=The Party (Live)
TTITLE8=Puttin' On The Ritz (Live)
TTITLE9=I Wanna Be Your Man (Live)
TTITLE10=Teddy Bear (Live)
TTITLE11=I Love To See You Smile (Live)
TTITLE12=Hold Tight, Hold Tight (Live)
TTITLE13=Love Love Love (Live)
TTITLE14=A Little Talk With Thee (Live)
EXTD=YEAR: 2011
EXTT0=
EXTT1=
EXTT2=
EXTT3=
EXTT4=
EXTT5=
EXTT6=
EXTT7=
EXTT8=
EXTT9=
EXTT10=
EXTT11=
EXTT12=
EXTT13=
EXTT14=
PLAYORDER=
